<?xml version="1.0" encoding="utf-8"?><!DOCTYPE svg PUBLIC "-//W3C//DTD SVG 1.1//EN" "http://www.w3.org/Graphics/SVG/1.1/DTD/svg11.dtd"><svg version="1.1" id="Contours" xmlns="http://www.w3.org/2000/svg" xmlns:xlink="http://www.w3.org/1999/xlink" x="0px" y="0px" width="1372.047241px" height="1372.047241px" viewBox="0.000002 0.000002 1372.047241 1294.888184" enable-background="new 0 0 1372.047241 1372.047241" xml:space="preserve" stroke="black" fill="none" stroke-linecap='round' stroke-linejoin='round'><path class="selected"  fill="#000000" opacity="1.000000" stroke="none" 
 	d="
M1146.965101 1072.138151 C1134.526258 1080.841276 1121.408461 1087.943327 1110.918592 1098.620451 C1107.154432 1102.451871 1103.210951 1106.166837 1098.972425 1109.447843 C1096.798109 1111.131071 1093.830214 1112.542692 1091.155775 1112.665861 C1085.965712 1112.905363 1083.593031 1115.755094 1085.715712 1120.388639 C1089.230848 1128.061979 1089.039686 1127.732877 1081.847425 1131.909879 C1075.337172 1135.690885 1069.376722 1140.406339 1063.031752 1144.488981 C1060.190443 1146.317228 1057.082411 1148.610441 1053.947645 1148.863126 C1050.629530 1149.130460 1049.011244 1150.870817 1046.899061 1152.628629 C1045.101942 1154.124113 1043.171766 1155.888761 1041.017225 1156.453580 C1029.789930 1159.396696 1020.063490 1165.475431 1009.843153 1170.576505 C1006.029554 1172.479826 1001.484266 1172.874113 997.342909 1174.179044 C994.560804 1175.055509 991.919813 1176.369962 989.184828 1177.407194 C977.949965 1181.667814 966.509169 1185.458585 955.537367 1190.311369 C949.458021 1193.000455 943.625013 1196.839689 938.611586 1201.224699 C927.597914 1210.857755 915.201124 1218.105192 902.001356 1224.032316 C896.680433 1226.421598 890.777174 1227.479826 885.233351 1229.414030 C874.318800 1233.222135 863.620314 1237.725065 852.555494 1241.006925 C839.436110 1244.898161 825.962660 1247.579679 812.759962 1251.211881 C802.782789 1253.956876 793.108534 1257.857267 783.071241 1260.309171 C776.868605 1261.824430 769.946363 1263.035001 763.866346 1261.808439 C754.084425 1259.835294 745.788466 1262.424406 737.326796 1266.236417 C734.804274 1267.372892 732.136854 1268.189664 729.529249 1269.134977 C727.644850 1269.818082 725.627638 1270.243375 723.880629 1271.177946 C716.651381 1275.045255 716.839369 1274.971281 711.834608 1268.832365 C710.804701 1267.569059 707.996901 1266.979215 706.194044 1267.261930 C699.697462 1268.280485 693.276991 1269.789518 686.836317 1271.153898 C685.784437 1271.376676 684.425489 1271.491178 683.802320 1272.187223 C678.337782 1278.292692 672.018263 1276.023038 665.639051 1274.392057 C663.771376 1273.914518 661.497877 1273.616056 659.770094 1274.236784 C651.055799 1277.367277 642.320814 1276.337736 633.465712 1275.247892 C630.522902 1274.885587 627.422621 1275.805631 624.393873 1276.135831 C624.229139 1276.153776 624.059584 1276.151578 623.894300 1276.136320 C613.085279 1275.138273 602.176771 1274.708585 591.518507 1272.846647 C587.469557 1272.139371 583.821119 1267.860685 579.150892 1269.225065 C568.604261 1272.306364 559.416273 1266.445036 549.550550 1265.428800 C540.656446 1264.512296 531.599867 1265.167203 522.614943 1265.140470 C518.058180 1265.126920 513.496473 1265.008146 508.945753 1265.174162 C504.244886 1265.345792 499.559279 1265.971159 494.858656 1266.104215 C484.344496 1266.401823 473.940870 1265.762662 464.013014 1261.738737 C462.869398 1261.274992 461.509779 1261.123502 460.262953 1261.169645 C448.791334 1261.594083 437.980604 1259.117521 427.640760 1254.186369 C424.874220 1252.867033 421.670485 1252.438810 418.959425 1251.036954 C417.017347 1250.032438 415.412123 1248.219694 413.920729 1246.533781 C411.044691 1243.282682 407.876600 1243.431852 404.299330 1245.119962 C398.138929 1248.027067 392.003248 1250.793302 384.835218 1248.266691 C383.283674 1247.719694 381.159987 1249.067594 379.294569 1249.089201 C373.528669 1249.156217 367.908674 1250.424772 361.931715 1248.465910 C358.465559 1247.329923 353.925367 1249.471647 349.868422 1250.137785 C349.711653 1250.163541 349.428358 1250.153410 349.414503 1250.210783 C347.584547 1257.801847 344.131758 1251.272794 341.450514 1251.080534 C340.069899 1250.981657 338.733686 1250.374967 337.352461 1250.153532 C331.093092 1249.149625 324.848646 1247.795744 318.548445 1247.425260 C315.889143 1247.268888 313.109449 1249.238737 310.376997 1250.221403 C308.204878 1251.002531 304.671522 1252.962492 304.080641 1252.303312 C301.728376 1249.679044 296.107771 1248.488737 298.882185 1242.825407 C299.748060 1241.057828 300.219557 1238.682096 299.815504 1236.813078 C299.316664 1234.505704 298.234266 1231.178190 296.507948 1230.467252 C284.578077 1225.553800 274.028883 1218.468107 263.434980 1211.272794 C253.820173 1204.742399 244.468031 1197.744596 233.145399 1193.890348 C229.181318 1192.540861 226.080854 1188.450285 222.784925 1185.396818 C219.141096 1182.020719 215.775526 1178.346403 212.200087 1174.894010 C204.496473 1167.455412 196.924055 1159.865202 188.943953 1152.733244 C181.524488 1146.102262 173.622938 1140.012540 165.987074 1133.620695 C164.332228 1132.235563 162.530195 1130.806852 161.434889 1129.008878 C154.898787 1118.279630 144.542112 1111.148405 136.226027 1102.105436 C134.709333 1100.456144 131.309279 1100.602872 129.639189 1099.015104 C127.321531 1096.811857 125.578901 1093.882780 124.023085 1091.028410 C121.887510 1087.110319 120.467665 1082.785490 118.182615 1078.969328 C114.560759 1072.920866 110.591581 1067.068449 106.537703 1061.295744 C104.588362 1058.519987 101.949827 1056.234708 99.922300 1053.505216 C98.361250 1051.403898 97.410688 1048.858610 95.937025 1046.680997 C92.137800 1041.066495 87.992750 1035.675993 84.392180 1029.940885 C82.194441 1026.440031 80.739256 1022.471403 78.967634 1018.704923 C77.050108 1014.628141 76.089170 1010.153410 70.394636 1008.863981 C65.320387 1007.715177 64.719893 1003.843717 67.228117 997.289640 C68.167952 994.833829 68.940016 992.076383 68.780760 989.519254 C68.671537 987.765104 67.200193 985.569059 65.681456 984.527921 C61.073454 981.369230 58.050077 978.029508 57.672392 971.754972 C57.359587 966.558439 54.494505 961.510343 52.727583 956.407804 C51.163450 951.891080 49.737425 947.309904 47.826262 942.942716 C47.391279 941.948698 45.166838 941.224454 43.847258 941.336149 C43.131498 941.396696 42.010176 943.508024 42.065260 944.646207 C42.299055 949.477262 40.260756 953.068082 36.622099 955.910001 C36.141691 956.285245 34.849546 956.433439 34.613386 956.139860 C34.124220 955.531705 33.638060 954.107267 33.942091 953.798917 C37.576292 950.113615 34.507689 942.881681 40.882338 940.720914 C40.348478 936.465177 40.504866 931.959928 39.082090 928.025724 C37.722853 924.267057 35.701002 920.865568 37.070494 916.777677 C37.198225 916.396329 38.822859 916.347379 39.710127 916.464689 C40.119505 916.518766 40.426664 917.346281 40.780180 917.823087 C40.841826 917.181974 41.204588 916.205289 40.920057 915.950040 C36.456343 911.945402 39.492003 906.915861 38.908140 902.393522 C38.140104 896.444913 37.189390 890.496793 35.831755 884.661222 C35.411100 882.853117 33.591337 881.212003 32.088713 879.851530 C29.839735 877.815397 29.605391 875.807462 30.525938 872.943937 C31.718840 869.233366 32.243345 865.300016 32.954054 861.443815 C34.936308 850.688688 31.816420 840.584928 29.030973 830.415433 C28.563887 828.710172 28.799543 826.749601 28.991102 824.936674 C30.641371 809.317716 25.827574 795.195646 18.847830 781.635587 C17.635138 779.279569 15.256651 777.551298 13.745329 775.311246 C12.826307 773.949064 12.052580 772.163114 12.048750 770.565519 C12.031904 763.541227 10.784353 757.086149 6.025732 751.500883 C3.230711 748.220243 3.416540 744.137662 4.449308 740.090421 C4.592596 739.528898 4.182554 738.330045 3.806089 738.225126 C2.679564 737.911283 0.418547 738.080961 0.403898 737.908598 C0.215551 735.692899 -0.463442 732.982328 0.519827 731.291471 C6.583014 720.865141 4.020414 710.338590 2.191443 699.489225 C1.239828 693.844328 2.646444 687.805204 2.961187 681.942716 C3.311613 675.415495 3.345694 668.855070 4.061605 662.369169 C4.573408 657.732389 5.909620 653.176908 7.026693 648.621610 C7.463568 646.840116 8.619505 645.208402 8.906012 643.421598 C9.739256 638.224821 11.982023 632.491911 10.627745 627.859281 C7.441107 616.958646 15.683187 608.556913 15.391706 598.236173 C15.206228 591.668851 19.246923 585.012174 21.229857 578.347074 C24.719328 566.618253 28.916334 555.016691 31.276289 543.057706 C33.836317 530.084928 39.924543 518.576017 44.452971 506.460722 C48.700468 495.096952 54.924452 484.480680 60.080809 473.443021 C61.704435 469.967558 62.416380 466.067594 64.025511 462.583585 C66.807783 456.559537 69.738401 450.579252 73.025236 444.819425 C76.736219 438.316373 82.449980 432.539701 84.529982 425.617094 C87.892088 414.427396 97.550184 406.956388 100.239836 395.558805 C101.421965 390.549528 104.331038 385.949308 106.441908 381.157133 C107.527372 378.692777 107.109968 377.351530 104.006208 377.488432 C103.355879 377.517057 102.088606 376.236539 102.065702 375.528226 C101.984297 373.010831 101.978239 371.045683 98.489515 370.906339 C97.694075 370.874540 97.015089 367.926542 96.282515 366.320707 C97.558577 366.475004 98.974348 366.324796 100.087034 366.835294 C105.524427 369.329801 112.697233 368.440397 114.924345 364.561552 C115.740339 363.140348 115.401732 361.086637 116.119230 359.572355 C117.905745 355.801847 120.064009 352.209623 121.951185 348.484159 C125.996611 340.498014 129.770964 332.368497 134.010405 324.488157 C140.456053 312.506895 145.718916 299.882474 155.491133 289.793516 C160.200453 284.931638 163.076796 278.327024 166.995314 272.658201 C171.939253 265.505918 177.634993 258.818967 182.034956 251.358366 C187.863966 241.474607 196.388655 233.516050 201.117262 222.794065 C203.553144 217.270841 207.853376 212.409055 211.949995 207.818449 C217.470198 201.632688 223.720137 196.104551 229.432783 190.081571 C232.517164 186.829679 234.847700 182.846647 238.015883 179.693388 C248.203413 169.554136 259.616896 160.451566 268.588057 149.356687 C274.182325 142.438139 281.067610 139.676969 288.259565 136.327909 C289.101240 135.936002 289.988783 135.521513 290.661573 134.905973 C302.977522 123.638822 315.224409 112.295866 327.580702 101.073331 C331.251905 97.739011 335.108320 94.580961 339.107527 91.653104 C340.241316 90.823057 342.171766 90.969328 343.749128 90.876920 C349.829542 90.520628 352.981123 85.463468 357.140059 82.251493 C364.392622 76.650175 372.332289 72.558668 380.612654 68.819501 C384.284895 67.161222 387.937696 64.723280 390.601606 61.746442 C394.321669 57.589307 398.975050 56.377821 403.865065 56.282835 C408.866224 56.185697 412.969313 54.466657 417.251722 52.228742 C423.659620 48.880064 430.417921 46.208906 436.966932 43.121534 C446.729994 38.518964 456.355543 33.613508 466.217482 29.237821 C469.862440 27.620557 474.003492 27.108030 477.931288 26.144682 C485.196547 24.362821 492.458326 22.563367 499.747084 20.882124 C504.177687 19.860136 508.703199 19.222852 513.092482 18.059705 C515.133131 17.518995 516.848890 15.695707 518.889967 15.223859 C524.307508 13.971433 529.818434 12.333234 535.298536 12.309507 C545.960768 12.263303 555.752333 8.364317 566.000258 6.591444 C566.449537 6.513731 566.895826 6.113905 567.306898 6.164014 C581.369520 7.878400 593.995558 -0.456103 608.269606 0.733976 C615.574354 1.342985 622.957350 1.107755 630.200636 2.823331 C631.763319 3.193464 633.462049 2.942960 635.074842 3.155149 C644.864271 4.443296 654.623426 6.021787 664.443373 6.987714 C668.397108 7.376615 672.496046 6.078962 676.497816 6.255018 C679.892591 6.404371 683.220350 7.710279 686.618055 8.251691 C691.340406 9.004209 696.084791 9.755582 700.848707 10.071226 C705.494581 10.379041 710.179335 10.046903 714.842299 10.171613 C717.737989 10.249067 719.933485 9.576566 722.396498 7.637037 C724.097425 6.297559 728.192030 6.175550 730.164625 7.321210 C738.350904 12.075651 747.589735 12.105711 756.370558 14.133085 C762.003065 15.433546 767.638746 16.722562 773.288466 17.945310 C776.971998 18.742506 780.670729 19.484632 784.385206 20.119154 C788.761610 20.866758 793.193983 21.311384 797.545729 22.172285 C805.994276 23.843626 814.346205 26.771650 822.843519 27.230878 C833.176283 27.789304 840.347731 35.217100 849.723890 37.412290 C851.836866 37.906995 853.899916 39.002836 856.008375 39.065366 C868.766432 39.443708 880.594069 44.581586 893.106031 46.121168 C899.317396 46.885480 905.616652 47.114500 911.753798 48.248197 C916.903212 49.199445 921.813002 51.391431 926.940931 52.528593 C933.554701 53.995267 940.393202 56.353254 946.932264 55.824094 C957.814955 54.943433 965.396620 61.686216 974.435560 65.045484 C979.644056 66.981184 985.032850 68.428922 990.320570 70.157255 C991.631727 70.585813 992.894667 71.193510 994.130262 71.816740 C1006.951918 78.283323 1019.889906 84.535276 1032.529799 91.340238 C1039.937880 95.328550 1047.014662 99.989927 1053.979139 104.732236 C1066.363661 113.165067 1078.575331 121.853147 1090.789686 130.532468 C1092.530897 131.769834 1094.206556 133.345823 1095.357801 135.124204 C1100.137709 142.507566 1107.536146 142.688078 1114.885511 141.932676 C1117.457899 141.668302 1117.845594 142.784116 1119.005629 144.093595 C1120.897718 146.229490 1122.736586 148.698453 1125.147352 150.038267 C1134.372572 155.165311 1143.407362 160.414335 1150.019178 168.971952 C1150.849257 170.046262 1152.633192 170.346067 1153.596327 171.363432 C1155.213026 173.071073 1156.524549 175.067442 1157.965223 176.941618 C1158.742933 177.953123 1159.336195 179.571317 1160.330946 179.875669 C1167.014662 181.921171 1171.901625 187.434751 1179.359266 188.534177 C1183.516981 189.147092 1187.592299 193.291380 1190.805555 196.693449 C1196.718031 202.953397 1205.321913 206.795805 1208.276381 215.819028 C1208.586195 216.765287 1210.343519 217.168485 1211.284071 217.989896 C1214.582533 220.870512 1217.746473 223.908720 1221.099989 226.722166 C1223.653334 228.864439 1226.385878 230.799223 1229.092299 232.751829 C1237.847670 239.068204 1243.119886 248.031889 1248.005629 257.330564 C1248.953871 259.135465 1250.356947 260.720792 1251.663710 262.314390 C1255.734877 267.279172 1259.935438 272.139616 1263.932997 277.162229 C1265.885756 279.615629 1267.489637 282.345823 1269.277113 284.932859 C1269.556654 285.337492 1269.941542 285.914213 1270.332289 285.961698 C1282.045301 287.385831 1282.743422 299.237821 1288.876234 305.890623 C1298.889540 316.752683 1303.682142 330.982328 1309.953993 344.086454 C1312.763197 349.955656 1317.054091 354.417509 1320.180555 359.826200 C1320.656508 360.649381 1321.985975 361.456754 1321.869154 362.071378 C1320.681166 368.315824 1325.537001 371.219144 1328.480848 375.436857 C1332.894056 381.759855 1336.749647 388.620084 1339.808241 395.698698 C1342.857313 402.755643 1344.599501 410.373869 1346.988783 417.721952 C1347.557875 419.471830 1348.241713 421.234525 1349.185804 422.802763 C1351.644545 426.886320 1351.633192 430.590055 1349.090712 434.832059 C1348.173109 436.362943 1348.982435 439.551786 1349.975721 441.484586 C1352.601698 446.594938 1356.868910 451.112821 1358.409071 456.463468 C1360.122572 462.416715 1360.866346 469.312101 1359.590590 475.274808 C1358.335585 481.140165 1360.531630 485.840604 1361.410292 490.953519 C1363.267958 501.761686 1365.949476 512.427641 1367.833021 523.232145 C1368.363905 526.276517 1366.887465 529.619352 1367.043104 532.790372 C1367.487928 541.857816 1368.366591 550.903287 1368.903456 559.967496 C1369.002333 561.636991 1368.559095 563.461027 1367.916273 565.029203 C1365.988295 569.731657 1366.483290 573.655973 1368.460341 578.678129 C1371.005384 585.143034 1374.107801 592.352811 1370.182264 600.015531 C1369.090345 602.147184 1370.958143 605.634061 1370.903334 608.488309 C1370.745497 616.686308 1370.033216 624.878995 1370.038221 633.073392 C1370.043592 641.601652 1370.747450 650.127287 1370.903090 658.658598 C1370.958265 661.679838 1370.115492 664.707487 1370.005140 667.743986 C1369.807264 673.186124 1365.676649 678.488432 1369.756483 684.232633 C1370.426771 685.176420 1368.538466 688.190946 1367.478407 690.045988 C1366.167250 692.340482 1364.253675 694.300993 1363.026014 696.630094 C1361.596693 699.341703 1360.392591 702.227750 1359.539442 705.168302 C1358.948500 707.204496 1359.091322 709.459562 1358.957777 711.620023 C1358.896498 712.613126 1359.085218 713.632352 1358.943373 714.608121 C1358.327772 718.839078 1358.404799 723.398588 1356.739759 727.182706 C1355.189344 730.705595 1352.000135 733.663786 1349.079847 736.385038 C1345.901014 739.347135 1343.393690 742.110075 1344.926039 746.907743 C1347.109510 753.744230 1344.233168 760.177702 1342.989393 766.741483 C1342.193617 770.940519 1341.346083 775.163053 1341.035170 779.412626 C1340.617445 785.120939 1337.986097 789.675260 1335.339857 794.603361 C1331.432753 801.879301 1329.177992 810.025419 1325.884047 817.656217 C1324.599257 820.632413 1322.218641 823.115446 1320.662245 825.998624 C1316.992567 832.796720 1313.517225 839.699735 1309.973646 846.565641 C1309.905775 846.697233 1310.035902 846.984830 1309.954969 847.048429 C1304.638929 851.222623 1306.462904 857.830534 1304.414808 862.760221 C1302.253065 867.963834 1300.075575 872.291471 1301.750624 877.840299 C1301.773451 877.915617 1301.497084 878.051237 1301.419813 878.191373 C1300.018324 880.738615 1299.013075 883.399015 1294.991224 881.250578 C1292.045424 879.676969 1288.595228 878.851408 1285.269056 878.290372 C1284.072035 878.088712 1281.926771 879.313566 1281.371351 880.451871 C1280.458021 882.323698 1280.488050 884.655607 1280.120375 886.793668 C1280.689466 886.787687 1281.446669 887.015348 1281.794813 886.735197 C1283.250380 885.563200 1284.192762 883.105314 1286.475843 886.055753 C1289.123793 889.477872 1293.918226 891.778776 1291.167738 897.471403 C1287.606581 904.841520 1281.870619 907.462125 1273.170912 904.692472 C1269.440199 903.504728 1266.028456 905.722135 1266.297865 907.608121 C1267.220594 914.068571 1262.062513 917.756315 1260.752333 922.978605 C1259.910414 926.333707 1259.753553 929.942228 1259.828749 933.425626 C1259.926283 937.931364 1260.595472 942.422819 1260.955824 946.925382 C1261.331068 951.617033 1262.127577 956.347868 1261.813856 960.999113 C1261.546034 964.967374 1260.629286 969.194791 1258.804091 972.681486 C1256.280897 977.501310 1257.835829 981.593839 1259.288588 985.973234 C1260.553236 989.785856 1261.943983 993.574308 1262.893934 997.467496 C1263.523451 1000.047330 1262.633070 1002.947721 1259.694471 1002.886564 C1258.090467 1002.853117 1256.143812 1000.493375 1255.085218 998.739957 C1254.172621 997.227872 1254.367201 995.073453 1253.952040 993.230070 C1252.774794 988.004118 1248.019300 986.040617 1242.756849 987.725675 C1235.389051 990.085294 1231.440321 996.775724 1225.252333 1000.692350 C1219.036512 1004.626676 1213.797621 1010.150846 1208.323256 1015.187589 C1206.083021 1017.248869 1204.416761 1019.920621 1202.370619 1022.208341 C1196.160536 1029.152433 1190.002455 1036.148893 1183.600111 1042.912809 C1180.370253 1046.325162 1176.421766 1049.063200 1173.243055 1052.515836 C1171.052992 1054.894620 1169.539198 1057.925016 1167.877333 1060.754850 C1164.489271 1066.523893 1157.490248 1065.687589 1152.813856 1069.105924 C1151.170301 1070.307462 1149.255873 1071.138273 1146.965101 1072.138151 M1071.965101 400.638151 C1067.358046 394.697843 1062.625258 388.849271 1058.199354 382.777006 C1056.109999 379.910612 1054.619764 376.609159 1052.837782 373.516447 C1051.441053 371.092374 1050.479994 368.184843 1048.518324 366.359037 C1040.016615 358.445951 1031.766493 350.393034 1025.608412 340.397855 C1024.147718 338.026823 1021.985609 335.968107 1019.804579 334.183012 C1012.996107 328.610746 1006.039808 323.218259 999.109510 317.795835 C994.841322 314.456174 990.631361 311.024107 986.191542 307.925657 C978.074354 302.260892 969.864027 296.724302 961.582533 291.302427 C955.185438 287.114408 948.779554 282.892698 942.084852 279.219541 C935.335585 275.516447 928.025648 272.817289 921.368666 268.972868 C918.594008 267.370451 917.227674 263.483884 914.592665 261.450224 C910.276930 258.119505 905.435255 255.473325 900.837660 252.503995 C891.894300 246.727995 883.351576 240.181791 873.936903 235.322568 C861.505323 228.906278 848.571424 223.341550 835.491591 218.361326 C830.100599 216.308683 824.455641 215.551481 820.660109 210.519926 C819.912306 209.528593 817.787550 209.178098 816.306776 209.198118 C798.554274 209.438596 780.803358 209.805051 763.052076 210.136991 C762.552320 210.146329 762.021559 210.026762 761.556715 210.154478 C750.286207 213.251585 738.868055 215.189268 727.125868 215.220090 C724.019606 215.228239 720.758192 215.813352 717.847059 216.888792 C713.091200 218.645750 708.750074 221.871702 703.896193 222.933164 C697.126905 224.413541 690.055067 224.583860 683.097303 225.111662 C672.792799 225.893339 662.476210 226.156431 653.253614 232.018980 C650.344801 233.868070 646.809156 234.229642 643.398634 231.385191 C642.005140 230.223020 638.934340 230.494871 636.795424 230.934873 C633.338575 231.645963 630.094984 233.532285 626.631300 234.045927 C615.776869 235.655515 605.208693 237.988218 594.903273 241.989530 C587.290907 244.945188 578.311842 243.688047 571.329664 249.096281 C570.913038 249.418974 569.994581 249.002531 569.368055 249.160978 C566.207411 249.960294 563.077955 250.883848 559.915480 251.675169 C553.742262 253.219755 548.975172 258.066465 542.214308 258.574216 C537.828383 258.903623 532.879530 259.901060 529.380812 262.326902 C519.488112 269.186033 509.177626 274.427183 497.201979 276.593320 C492.774244 277.394163 488.260145 279.243314 486.642164 284.744840 C486.104017 286.574613 483.972975 287.463590 481.104811 287.419736 C476.880384 287.355131 472.196486 288.396909 468.487806 290.406248 C463.102858 293.323728 458.361891 297.456846 453.441237 301.196531 C448.884291 304.659818 443.290113 307.495695 440.213331 312.011716 C434.285414 320.712583 426.926527 326.788145 417.101942 330.152128 C415.064650 330.849699 412.745008 331.303739 411.150709 332.601347 C406.986341 335.990751 403.205977 339.846891 399.173597 343.404813 C391.398817 350.264677 383.478437 356.961942 375.802137 363.929044 C374.127394 365.449125 373.278791 367.856657 371.953047 369.789152 C369.593367 373.228788 367.964979 377.197843 363.028914 378.274686 C359.951277 378.946073 356.629591 380.376676 354.367628 382.485624 C350.624220 385.975919 347.958479 390.606657 344.288160 394.193571 C334.492506 403.766813 322.800337 411.252042 313.805128 421.745206 C311.660749 424.246671 308.901503 426.239530 306.874495 428.819486 C301.771528 435.314725 296.775770 441.906766 292.029341 448.665311 C288.991713 452.990690 286.224012 457.293058 285.700636 463.113065 C285.242414 468.208524 283.994825 473.643766 279.323683 477.445402 C276.353712 479.862516 273.824354 482.967863 271.603346 486.121000 C268.832960 490.053983 266.919996 494.607389 264.033705 498.438566 C259.018507 505.095487 251.782148 510.799039 251.191572 519.564298 C250.470808 530.261869 244.833815 539.021085 241.652205 548.705228 C239.534315 555.151701 236.396589 561.114835 236.879072 568.252348 C237.293989 574.390592 236.784010 580.585844 237.012190 586.743620 C237.280836 593.992643 236.182478 601.229276 238.738905 608.495084 C240.297712 612.925565 239.824751 618.134855 239.921583 623.001188 C240.081739 631.054655 239.848494 639.115995 240.008680 647.169462 C240.105482 652.035795 241.731855 657.136991 240.721602 661.701261 C238.961256 669.654264 240.796888 676.900053 243.482618 683.888151 C245.402754 688.884000 245.503767 693.556425 245.038313 698.623441 C244.177717 707.993436 242.974775 717.405180 243.147963 726.776762 C243.328383 736.543668 244.850691 746.297575 246.027479 756.027921 C246.436537 759.410123 247.168135 762.866178 248.440046 766.010343 C252.582350 776.250089 258.686445 785.793485 258.125807 797.569608 C258.013166 799.935636 259.522291 802.736723 261.054487 804.750761 C264.565138 809.365568 269.025770 813.300138 272.240339 818.088407 C277.868452 826.471464 280.799452 836.159757 281.786543 846.049162 C282.945784 857.663053 288.681257 866.107389 297.280195 873.118497 C306.367537 880.527677 316.310316 887.055143 318.166609 900.243497 C318.604780 903.356290 320.893141 907.645963 323.475966 908.776090 C336.144972 914.319791 343.651716 926.136930 354.787550 933.379972 C359.195936 936.247282 363.797133 940.257413 368.601637 940.719328 C374.891035 941.323820 377.794325 944.485685 379.423384 949.256681 C382.437147 958.083463 388.737257 963.762907 395.779066 969.242399 C400.945021 973.262052 405.430372 978.174406 410.102308 982.806730 C416.687208 989.335783 421.024183 998.240812 430.710402 1001.475797 C435.513563 1003.080167 440.177992 1005.202238 444.722364 1007.458341 C455.367201 1012.742887 463.747023 1022.571378 476.651381 1023.324430 C487.806776 1031.353117 501.181044 1027.519132 513.407118 1029.682340 C526.663466 1032.027433 540.422865 1029.700407 553.679335 1026.184904 C560.234205 1024.446500 565.307875 1020.861662 564.825819 1016.645597 C564.177626 1010.977506 566.590223 1007.298185 570.595961 1003.938810 C573.267469 1001.698209 575.206068 999.117399 573.094984 995.203458 C572.643324 994.366178 573.843946 992.637785 574.283400 991.319913 C575.539259 991.787931 576.983107 992.001432 578.019362 992.766813 C583.324537 996.685026 582.083204 1002.925016 582.772169 1008.212492 C583.503492 1013.825529 586.173719 1018.260831 589.083876 1022.633146 C592.170607 1027.270719 596.085035 1031.355070 599.202162 1035.975065 C603.299025 1042.047330 601.582472 1046.437711 594.571241 1049.147794 C591.268568 1050.424528 587.490919 1051.160734 584.839369 1053.281095 C580.249098 1056.951994 575.291334 1057.328580 569.881422 1057.208341 C567.028517 1057.144865 563.941175 1057.276456 561.379225 1058.335050 C559.826674 1058.976652 559.076063 1061.559049 557.965101 1063.269498 C559.565016 1063.459074 561.162733 1063.762785 562.765638 1063.793546 C563.663221 1063.810880 564.792677 1062.907682 565.438124 1063.215543 C574.500013 1067.535001 584.300001 1066.683317 593.820509 1066.994718 C603.493910 1067.310880 613.206068 1066.497770 622.899244 1066.127042 C627.919569 1065.935148 634.083509 1067.884000 635.073500 1059.753385 C635.142897 1059.183561 636.762098 1058.802457 637.660597 1058.333585 C637.762098 1059.181974 637.573317 1060.268278 638.029982 1060.825773 C638.805250 1061.771940 639.895765 1062.844694 641.012526 1063.067106 C652.419935 1065.339078 662.462721 1059.331022 673.067823 1057.097990 C681.165541 1055.392789 688.652113 1050.797575 697.444044 1052.098356 C697.970228 1052.176237 698.567762 1051.634367 699.155165 1051.457243 C707.355482 1048.983854 714.680677 1043.784879 724.063856 1044.911832 C728.220594 1045.410978 732.736464 1043.696500 736.978224 1042.569059 C750.924147 1038.861662 764.864515 1035.117765 778.711195 1031.061002 C784.159315 1029.464811 789.357801 1027.013883 794.662428 1024.932828 C796.095289 1024.370695 797.459059 1023.597623 798.926100 1023.163297 C804.276930 1021.578825 809.712538 1020.262907 815.011671 1018.526701 C819.836439 1016.946012 824.432386 1014.634245 829.293898 1013.204801 C839.122999 1010.314787 849.183424 1008.172330 858.914930 1005.004362 C865.026625 1003.014616 870.771437 999.837492 876.569471 996.968229 C880.043104 995.249113 883.126478 992.637662 886.706739 991.267057 C890.295668 989.893156 893.309523 988.595426 895.759169 985.203825 C897.503920 982.788053 901.012648 981.177457 904.051710 980.264127 C910.169142 978.425748 915.522779 976.024625 918.676893 969.997282 C920.910292 965.729703 923.403212 961.571012 926.102430 957.581754 C928.951063 953.372037 932.022963 949.287199 935.297255 945.400480 C937.828016 942.396207 940.759657 939.716276 943.625013 937.010709 C947.172010 933.661710 950.909071 930.512785 954.427992 927.135587 C958.594252 923.137174 962.638685 919.010465 966.681410 914.885831 C967.561537 913.987760 968.372450 912.945280 968.939466 911.829313 C973.798719 902.266203 981.598768 896.005827 990.244398 889.756803 C999.195936 883.286710 1007.061293 874.800016 1012.655287 864.864591 C1016.094984 858.755216 1014.616957 856.335538 1007.950209 856.138639 C1007.783705 856.133756 1007.573866 856.204191 1007.456678 856.128141 C1005.951796 855.150358 1004.460096 854.152189 1002.965101 853.159147 C1004.446180 852.152189 1005.849257 850.452970 1007.423719 850.275846 C1011.208998 849.850187 1015.104261 850.426725 1018.896620 850.033048 C1021.285536 849.785001 1024.430555 849.213712 1025.750258 847.584074 C1031.630751 840.322477 1037.015638 832.655912 1042.490370 825.071256 C1044.130507 822.798978 1045.565077 820.365385 1046.948744 817.923490 C1050.463758 811.720792 1053.950941 805.500944 1057.341566 799.229703 C1059.322889 795.565092 1061.494764 791.927641 1062.859755 788.025663 C1064.396376 783.632963 1065.009169 778.924955 1066.270887 774.423307 C1066.631849 773.135038 1067.603285 771.487028 1068.716200 771.030119 C1074.235365 768.764188 1075.344740 763.313078 1077.966932 758.950773 C1079.651869 756.147184 1081.190931 753.238065 1083.081800 750.579923 C1086.854994 745.275541 1091.049452 740.259977 1094.640883 734.840787 C1097.366346 730.728361 1099.346571 726.129301 1101.806410 721.831571 C1104.435438 717.238737 1107.530531 712.889982 1109.869520 708.161344 C1111.632582 704.597440 1113.154799 700.679349 1113.630262 696.778287 C1114.127455 692.700285 1113.453627 688.421232 1112.806898 684.306181 C1112.659315 683.367460 1110.427870 682.855741 1109.316786 681.949857 C1106.318983 679.505949 1107.026381 677.220487 1110.653822 675.037504 C1112.693007 673.810453 1115.265150 671.767362 1115.620375 669.744657 C1116.996107 661.910673 1119.703749 654.337003 1119.231581 646.068204 C1119.001112 642.031950 1121.464247 637.791715 1122.942884 633.729398 C1123.676283 631.714567 1125.263929 629.996366 1125.912489 627.967435 C1129.910780 615.458585 1131.423475 602.520292 1131.855238 589.468473 C1131.944471 586.769804 1129.808241 583.925565 1130.122084 581.320036 C1131.005873 573.985380 1133.142836 566.786466 1133.809950 559.445402 C1134.386854 553.098783 1133.613661 546.676603 1128.319838 541.833219 C1127.728163 541.291837 1127.766371 538.814359 1128.228163 538.566068 C1131.955824 536.561674 1131.078260 533.389249 1130.633924 530.323087 C1130.134779 526.880033 1129.665663 523.422880 1128.936293 520.024931 C1127.363173 512.695768 1126.516859 505.043851 1123.749769 498.178190 C1119.959974 488.774381 1113.610243 480.476347 1111.450453 470.255155 C1111.026869 468.250578 1109.275038 466.490324 1108.008802 464.707731 C1105.348158 460.962064 1102.252333 457.478605 1099.970594 453.521024 C1096.036268 446.696928 1092.855604 439.431608 1088.799818 432.687528 C1087.207045 430.038969 1083.901869 428.480131 1081.768568 426.077055 C1080.174818 424.281705 1077.658461 421.170499 1078.248549 419.961515 C1080.215712 415.932951 1077.877943 413.259916 1076.518080 410.253141 C1075.182142 407.299345 1073.497084 404.503385 1071.965101 400.638151 M1019.965101 244.638151 C1017.875013 249.851469 1018.571180 252.344785 1022.378675 252.032957 C1028.212904 251.555143 1032.292860 253.521574 1035.072401 258.667020 C1036.042860 260.463316 1037.284925 262.493192 1038.956068 263.453825 C1042.798597 265.662687 1046.949476 267.354703 1051.045424 269.091062 C1052.209242 269.584501 1053.614637 269.508787 1054.909193 269.694089 C1054.361464 268.442411 1053.879530 267.155607 1053.236952 265.954588 C1052.937269 265.394285 1052.378431 264.930357 1051.849989 264.540952 C1043.078260 258.077268 1034.342176 251.562437 1025.454969 245.261076 C1024.171522 244.351011 1022.146742 244.486509 1019.965101 244.638151 M1294.965101 865.638151 C1294.736097 866.200407 1294.407240 866.743864 1294.296644 867.328580 C1293.939222 869.219816 1293.662001 871.126432 1293.354017 873.027067 C1294.224379 871.849821 1295.114027 870.686124 1295.958143 869.490446 C1296.490614 868.736173 1297.418226 867.871671 1297.323744 867.170255 C1297.222914 866.422941 1296.126722 865.809782 1294.965101 865.638151 M644.465101 1109.138151 C644.631788 1107.236539 644.861708 1105.336881 644.915968 1103.432096 C644.928053 1103.009855 644.395765 1102.427213 643.965223 1102.197599 C643.746168 1102.080656 642.838575 1102.606901 642.851149 1102.803556 C642.985792 1104.919523 643.242079 1107.027799 644.465101 1109.138151 M210.465101 221.138151 C210.350050 221.804807 210.234968 222.471494 210.119917 223.138120 C212.186171 222.520292 214.285261 221.990049 216.299757 221.234220 C216.952131 220.989500 217.382612 220.153287 217.914595 219.587644 C217.015608 219.520292 216.046247 219.208005 215.233656 219.441404 C213.923140 219.817869 212.715956 220.553983 210.465101 221.138151 M1007.465101 239.138120 C1007.026258 239.365995 1006.587538 239.593870 1006.148695 239.821806 C1008.259413 240.255369 1010.367323 240.704588 1012.490248 241.066404 C1012.576918 241.081174 1012.803724 240.272855 1012.965101 239.848020 C1011.465101 239.611387 1009.965101 239.374754 1007.465101 239.138120 M1317.464979 402.138212 C1317.970716 402.804838 1318.363173 403.798368 1319.021009 404.026456 C1319.481215 404.185880 1320.304213 403.299100 1320.965101 402.879545 C1320.131727 402.632413 1319.298475 402.385282 1317.464979 402.138212 z"/><path class="selected"  fill="#000000" opacity="1.000000" stroke="none" 
 	d="
M671.715101 1294.888151 C668.510389 1292.036954 669.510756 1286.694669 673.423048 1285.267301 C674.151747 1285.001554 675.664564 1285.287321 675.968336 1285.810392 C676.490797 1286.710172 676.847425 1288.299772 676.385695 1289.061979 C675.166334 1291.074674 673.470961 1292.799039 671.715101 1294.888151 z"/><path class="selected"  fill="#000000" opacity="1.000000" stroke="none" 
 	d="
M531.215101 3.388151 C533.180006 2.089887 534.831312 0.902189 536.646620 0.074018 C537.230238 -0.192248 538.402052 0.307432 538.997511 0.816282 C539.285475 1.062437 539.122755 2.463361 538.718763 2.788923 C536.271193 4.761640 533.738722 6.641752 531.107557 8.358076 C530.772047 8.576933 529.697340 7.662611 528.965101 7.273252 C529.631788 6.061567 530.298475 4.849866 531.215101 3.388151 z"/><path class="selected"  fill="#000000" opacity="1.000000" stroke="none" 
 	d="
M115.215101 335.388151 C114.162199 335.835233 113.359312 336.032316 112.556440 336.229459 C112.729414 335.328947 112.902388 334.428434 113.075361 333.527921 C113.871931 334.064664 114.668516 334.601408 115.215101 335.388151 z"/><path class="selected"  fill="#000000" opacity="1.000000" stroke="none" 
 	d="
M289.965101 490.138151 C285.132978 492.138151 280.333265 493.765409 275.436476 495.011198 C274.633284 495.215482 273.140883 493.922514 272.481489 492.966642 C272.154188 492.492216 272.756300 491.003995 273.345106 490.330045 C277.407118 485.680692 285.501265 485.392301 289.965101 490.138151 z"/><path class="selected"  fill="#000000" opacity="1.000000" stroke="none" 
 	d="
M994.715101 854.888151 C992.525770 853.865568 990.516249 852.681974 988.703871 851.248624 C988.321302 850.946134 988.661512 849.729826 988.668715 848.934537 C990.705580 849.440519 992.895033 849.635465 994.737318 850.538419 C996.645765 851.473844 997.408216 853.131803 994.715101 854.888151 z"/><path class="selected"  fill="#000000" opacity="1.000000" stroke="none" 
 	d="
M591.215101 995.388151 C591.659742 996.276823 592.012098 997.428190 591.922316 998.543912 C591.903273 998.780607 590.270460 998.887418 589.381117 999.054166 C589.909071 997.915495 590.437025 996.776823 591.215101 995.388151 z"/><path class="selected"  fill="#000000" opacity="1.000000" stroke="none" 
 	d="
M689.715101 1044.888151 C688.631727 1044.677824 687.424025 1044.394865 687.092970 1043.696378 C686.861036 1043.206998 687.825880 1042.150480 688.256239 1041.347135 C688.825819 1042.444181 689.395460 1043.541105 689.715101 1044.888151 z"/></svg>